<?xml version="1.0" standalone="no"?>
<!DOCTYPE svg PUBLIC "-//W3C//DTD SVG 1.1//EN" "http://www.w3.org/Graphics/SVG/1.1/DTD/svg11.dtd">
<svg width="100%" height="100%" version="1.1" xmlns="http://www.w3.org/2000/svg">
<path d="M341 25 L382 25 L388 31 L388 40 L382 46 L341 46 L335 40 L335 31 Z" style="fill:rgb(255,255,255);stroke:rgb(0,0,0);stroke-width:1"/>
<text x="361.5" y="35.5" style="font-family:Arial;font-size:8pt;fill:rgb(0,0,0);font-weight:bold;text-anchor:middle;dominant-baseline:central">Class</text>
<line x1="336" y1="45" x2="339" y2="42" style="stroke:rgb(0,0,0);stroke-width:2"/>
<path d="M339 42 L341 44 L342 39 L337 40 L339 42 Z" style="fill:rgb(0,0,0)"/>
<rect x="383" y="30" width="10" height="10" style="fill:rgb(255,255,255);stroke:rgb(0,0,0);stroke-width:1"/>
<line x1="385" y1="35" x2="391" y2="35" style="stroke:rgb(0,0,0);stroke-width:1"/>
<line x1="388" y1="32" x2="388" y2="38" style="stroke:rgb(0,0,0);stroke-width:1"/>

<path d="M502 76 L571 76 L577 82 L577 91 L571 97 L502 97 L496 91 L496 82 Z" style="fill:rgb(255,255,255);stroke:rgb(0,0,0);stroke-width:1"/>
<text x="536.5" y="86.5" style="font-family:Arial;font-size:8pt;fill:rgb(0,0,0);font-weight:bold;text-anchor:middle;dominant-baseline:central">Expression</text>
<line x1="497" y1="96" x2="500" y2="93" style="stroke:rgb(0,0,0);stroke-width:2"/>
<path d="M500 93 L502 95 L503 90 L498 91 L500 93 Z" style="fill:rgb(0,0,0)"/>
<rect x="572" y="81" width="10" height="10" style="fill:rgb(255,255,255);stroke:rgb(0,0,0);stroke-width:1"/>
<line x1="574" y1="86" x2="580" y2="86" style="stroke:rgb(0,0,0);stroke-width:1"/>
<line x1="577" y1="83" x2="577" y2="89" style="stroke:rgb(0,0,0);stroke-width:1"/>

<line x1="476" y1="86" x2="496" y2="86" style="stroke:rgb(0,0,0);stroke-width:1;stroke-linecap:round"/>
<rect x="395" y="76" width="76" height="21" style="fill:rgb(255,255,255);stroke:rgb(0,0,0);stroke-width:1"/>
<text x="433" y="86.5" style="font-family:Arial;font-size:8pt;fill:rgb(0,0,0);font-weight:bold;text-anchor:middle;dominant-baseline:central">dimension</text>
<rect x="466" y="81" width="10" height="10" style="fill:rgb(255,255,255);stroke:rgb(0,0,0);stroke-width:1"/>
<line x1="468" y1="86" x2="474" y2="86" style="stroke:rgb(0,0,0);stroke-width:1"/>

<path d="M491 127 L557 127 L563 133 L563 142 L557 148 L491 148 L485 142 L485 133 Z" style="fill:rgb(255,255,255);stroke:rgb(0,0,0);stroke-width:1"/>
<text x="524" y="137.5" style="font-family:Arial;font-size:8pt;fill:rgb(0,0,0);font-weight:bold;text-anchor:middle;dominant-baseline:central">Arguments</text>
<line x1="486" y1="147" x2="489" y2="144" style="stroke:rgb(0,0,0);stroke-width:2"/>
<path d="M489 144 L491 146 L492 141 L487 142 L489 144 Z" style="fill:rgb(0,0,0)"/>
<rect x="558" y="132" width="10" height="10" style="fill:rgb(255,255,255);stroke:rgb(0,0,0);stroke-width:1"/>
<line x1="560" y1="137" x2="566" y2="137" style="stroke:rgb(0,0,0);stroke-width:1"/>
<line x1="563" y1="134" x2="563" y2="140" style="stroke:rgb(0,0,0);stroke-width:1"/>

<line x1="465" y1="137" x2="485" y2="137" style="stroke:rgb(0,0,0);stroke-width:1;stroke-linecap:round"/>
<rect x="395" y="127" width="65" height="21" style="fill:rgb(255,255,255);stroke:rgb(0,0,0);stroke-width:1"/>
<text x="427.5" y="137.5" style="font-family:Arial;font-size:8pt;fill:rgb(0,0,0);font-weight:bold;text-anchor:middle;dominant-baseline:central">modifier</text>
<rect x="455" y="132" width="10" height="10" style="fill:rgb(255,255,255);stroke:rgb(0,0,0);stroke-width:1"/>
<line x1="457" y1="137" x2="463" y2="137" style="stroke:rgb(0,0,0);stroke-width:1"/>

<line x1="385" y1="86" x2="395" y2="86" style="stroke:rgb(0,0,0);stroke-width:1;stroke-linecap:round"/>
<line x1="385" y1="137" x2="395" y2="137" style="stroke:rgb(0,0,0);stroke-width:1;stroke-linecap:round"/>
<line x1="385" y1="86" x2="385" y2="137" style="stroke:rgb(0,0,0);stroke-width:1;stroke-linecap:round"/>
<line x1="375" y1="112" x2="385" y2="112" style="stroke:rgb(0,0,0);stroke-width:1;stroke-linecap:round"/>
<path d="M344 105 L367 105 L373 111 L373 119 L367 125 L344 125 L338 119 L338 111 Z" style="fill:rgb(255,255,255);stroke:rgb(0,0,0);stroke-width:1;stroke-dasharray:4,1"/>
<path d="M341 102 L364 102 L370 108 L370 116 L364 122 L341 122 L335 116 L335 108 Z" style="fill:rgb(255,255,255);stroke:rgb(0,0,0);stroke-width:1;stroke-dasharray:4,1"/>
<line x1="340" y1="112" x2="344" y2="112" style="stroke:rgb(0,0,0);stroke-width:1"/>
<line x1="344" y1="112" x2="348" y2="108" style="stroke:rgb(0,0,0);stroke-width:1"/>
<line x1="356" y1="108" x2="360" y2="108" style="stroke:rgb(0,0,0);stroke-width:1"/>
<line x1="356" y1="112" x2="364" y2="112" style="stroke:rgb(0,0,0);stroke-width:1"/>
<line x1="356" y1="116" x2="360" y2="116" style="stroke:rgb(0,0,0);stroke-width:1"/>
<line x1="360" y1="108" x2="360" y2="116" style="stroke:rgb(0,0,0);stroke-width:1"/>
<ellipse cx="352" cy="108" rx="2" ry="2" style="rgb(0,0,0)"/>
<ellipse cx="352" cy="112" rx="2" ry="2" style="rgb(0,0,0)"/>
<ellipse cx="352" cy="116" rx="2" ry="2" style="rgb(0,0,0)"/>
<text x="365" y="132" style="font-family:Arial;font-size:7.2pt;fill:rgb(0,0,0);text-anchor:end;dominant-baseline:central">0..∞</text>
<rect x="365" y="107" width="10" height="10" style="fill:rgb(255,255,255);stroke:rgb(0,0,0);stroke-width:1"/>
<line x1="367" y1="112" x2="373" y2="112" style="stroke:rgb(0,0,0);stroke-width:1"/>

<path d="M605 178 L674 178 L680 184 L680 193 L674 199 L605 199 L599 193 L599 184 Z" style="fill:rgb(255,255,255);stroke:rgb(0,0,0);stroke-width:1"/>
<text x="639.5" y="188.5" style="font-family:Arial;font-size:8pt;fill:rgb(0,0,0);font-weight:bold;text-anchor:middle;dominant-baseline:central">Expression</text>
<line x1="600" y1="198" x2="603" y2="195" style="stroke:rgb(0,0,0);stroke-width:2"/>
<path d="M603 195 L605 197 L606 192 L601 193 L603 195 Z" style="fill:rgb(0,0,0)"/>
<rect x="675" y="183" width="10" height="10" style="fill:rgb(255,255,255);stroke:rgb(0,0,0);stroke-width:1"/>
<line x1="677" y1="188" x2="683" y2="188" style="stroke:rgb(0,0,0);stroke-width:1"/>
<line x1="680" y1="185" x2="680" y2="191" style="stroke:rgb(0,0,0);stroke-width:1"/>

<path d="M676 229 L745 229 L751 235 L751 244 L745 250 L676 250 L670 244 L670 235 Z" style="fill:rgb(255,255,255);stroke:rgb(0,0,0);stroke-width:1"/>
<text x="710.5" y="239.5" style="font-family:Arial;font-size:8pt;fill:rgb(0,0,0);font-weight:bold;text-anchor:middle;dominant-baseline:central">Expression</text>
<line x1="671" y1="249" x2="674" y2="246" style="stroke:rgb(0,0,0);stroke-width:2"/>
<path d="M674 246 L676 248 L677 243 L672 244 L674 246 Z" style="fill:rgb(0,0,0)"/>
<rect x="746" y="234" width="10" height="10" style="fill:rgb(255,255,255);stroke:rgb(0,0,0);stroke-width:1"/>
<line x1="748" y1="239" x2="754" y2="239" style="stroke:rgb(0,0,0);stroke-width:1"/>
<line x1="751" y1="236" x2="751" y2="242" style="stroke:rgb(0,0,0);stroke-width:1"/>

<line x1="650" y1="239" x2="670" y2="239" style="stroke:rgb(0,0,0);stroke-width:1;stroke-linecap:round"/>
<rect x="602" y="232" width="46" height="21" style="fill:rgb(255,255,255);stroke:rgb(0,0,0);stroke-width:1;stroke-dasharray:4,1"/>
<rect x="599" y="229" width="46" height="21" style="fill:rgb(255,255,255);stroke:rgb(0,0,0);stroke-width:1;stroke-dasharray:4,1"/>
<text x="622" y="239.5" style="font-family:Arial;font-size:8pt;fill:rgb(0,0,0);font-weight:bold;text-anchor:middle;dominant-baseline:central">item</text>
<text x="640" y="260" style="font-family:Arial;font-size:7.2pt;fill:rgb(0,0,0);text-anchor:end;dominant-baseline:central">0..∞</text>
<rect x="640" y="234" width="10" height="10" style="fill:rgb(255,255,255);stroke:rgb(0,0,0);stroke-width:1"/>
<line x1="642" y1="239" x2="648" y2="239" style="stroke:rgb(0,0,0);stroke-width:1"/>

<line x1="589" y1="188" x2="599" y2="188" style="stroke:rgb(0,0,0);stroke-width:1;stroke-linecap:round"/>
<line x1="589" y1="239" x2="599" y2="239" style="stroke:rgb(0,0,0);stroke-width:1;stroke-linecap:round"/>
<line x1="589" y1="188" x2="589" y2="239" style="stroke:rgb(0,0,0);stroke-width:1;stroke-linecap:round"/>
<line x1="579" y1="214" x2="589" y2="214" style="stroke:rgb(0,0,0);stroke-width:1;stroke-linecap:round"/>
<path d="M545 204 L568 204 L574 210 L574 218 L568 224 L545 224 L539 218 L539 210 Z" style="fill:rgb(255,255,255);stroke:rgb(0,0,0);stroke-width:1"/>
<line x1="542" y1="214" x2="571" y2="214" style="stroke:rgb(0,0,0);stroke-width:1"/>
<ellipse cx="551" cy="214" rx="2" ry="2" style="rgb(0,0,0)"/>
<ellipse cx="556" cy="214" rx="2" ry="2" style="rgb(0,0,0)"/>
<ellipse cx="561" cy="214" rx="2" ry="2" style="rgb(0,0,0)"/>
<rect x="569" y="209" width="10" height="10" style="fill:rgb(255,255,255);stroke:rgb(0,0,0);stroke-width:1"/>
<line x1="571" y1="214" x2="577" y2="214" style="stroke:rgb(0,0,0);stroke-width:1"/>

<line x1="519" y1="213" x2="539" y2="213" style="stroke:rgb(0,0,0);stroke-width:1;stroke-linecap:round"/>
<path d="M442 203 L508 203 L514 209 L514 218 L508 224 L442 224 L436 218 L436 209 Z" style="fill:rgb(255,255,255);stroke:rgb(0,0,0);stroke-width:1"/>
<text x="475" y="213.5" style="font-family:Arial;font-size:8pt;fill:rgb(0,0,0);font-weight:bold;text-anchor:middle;dominant-baseline:central">Arguments</text>
<line x1="437" y1="223" x2="440" y2="220" style="stroke:rgb(0,0,0);stroke-width:2"/>
<path d="M440 220 L442 222 L443 217 L438 218 L440 220 Z" style="fill:rgb(0,0,0)"/>
<rect x="509" y="208" width="10" height="10" style="fill:rgb(255,255,255);stroke:rgb(0,0,0);stroke-width:1"/>
<line x1="511" y1="213" x2="517" y2="213" style="stroke:rgb(0,0,0);stroke-width:1"/>

<line x1="416" y1="213" x2="436" y2="213" style="stroke:rgb(0,0,0);stroke-width:1;stroke-linecap:round"/>
<rect x="335" y="203" width="76" height="21" style="fill:rgb(255,255,255);stroke:rgb(0,0,0);stroke-width:1;stroke-dasharray:4,1"/>
<text x="373" y="213.5" style="font-family:Arial;font-size:8pt;fill:rgb(0,0,0);font-weight:bold;text-anchor:middle;dominant-baseline:central">annotation</text>
<rect x="406" y="208" width="10" height="10" style="fill:rgb(255,255,255);stroke:rgb(0,0,0);stroke-width:1"/>
<line x1="408" y1="213" x2="414" y2="213" style="stroke:rgb(0,0,0);stroke-width:1"/>

<line x1="325" y1="35" x2="335" y2="35" style="stroke:rgb(0,0,0);stroke-width:1;stroke-linecap:round"/>
<line x1="325" y1="112" x2="335" y2="112" style="stroke:rgb(0,0,0);stroke-width:1;stroke-linecap:round"/>
<line x1="325" y1="213" x2="335" y2="213" style="stroke:rgb(0,0,0);stroke-width:1;stroke-linecap:round"/>
<line x1="325" y1="35" x2="325" y2="213" style="stroke:rgb(0,0,0);stroke-width:1;stroke-linecap:round"/>
<line x1="315" y1="137" x2="325" y2="137" style="stroke:rgb(0,0,0);stroke-width:1;stroke-linecap:round"/>
<path d="M281 127 L304 127 L310 133 L310 141 L304 147 L281 147 L275 141 L275 133 Z" style="fill:rgb(255,255,255);stroke:rgb(0,0,0);stroke-width:1"/>
<line x1="278" y1="137" x2="307" y2="137" style="stroke:rgb(0,0,0);stroke-width:1"/>
<ellipse cx="287" cy="137" rx="2" ry="2" style="rgb(0,0,0)"/>
<ellipse cx="292" cy="137" rx="2" ry="2" style="rgb(0,0,0)"/>
<ellipse cx="297" cy="137" rx="2" ry="2" style="rgb(0,0,0)"/>
<rect x="305" y="132" width="10" height="10" style="fill:rgb(255,255,255);stroke:rgb(0,0,0);stroke-width:1"/>
<line x1="307" y1="137" x2="313" y2="137" style="stroke:rgb(0,0,0);stroke-width:1"/>

<line x1="255" y1="137" x2="275" y2="137" style="stroke:rgb(0,0,0);stroke-width:1;stroke-linecap:round"/>
<rect x="186" y="127" width="64" height="21" style="fill:rgb(255,255,255);stroke:rgb(0,0,0);stroke-width:1"/>
<text x="218" y="137.5" style="font-family:Arial;font-size:8pt;fill:rgb(0,0,0);font-weight:bold;text-anchor:middle;dominant-baseline:central">extends</text>
<rect x="245" y="132" width="10" height="10" style="fill:rgb(255,255,255);stroke:rgb(0,0,0);stroke-width:1"/>
<line x1="247" y1="137" x2="253" y2="137" style="stroke:rgb(0,0,0);stroke-width:1"/>

<path d="M375 280 L416 280 L422 286 L422 295 L416 301 L375 301 L369 295 L369 286 Z" style="fill:rgb(255,255,255);stroke:rgb(0,0,0);stroke-width:1"/>
<text x="395.5" y="290.5" style="font-family:Arial;font-size:8pt;fill:rgb(0,0,0);font-weight:bold;text-anchor:middle;dominant-baseline:central">Class</text>
<line x1="370" y1="300" x2="373" y2="297" style="stroke:rgb(0,0,0);stroke-width:2"/>
<path d="M373 297 L375 299 L376 294 L371 295 L373 297 Z" style="fill:rgb(0,0,0)"/>
<rect x="417" y="285" width="10" height="10" style="fill:rgb(255,255,255);stroke:rgb(0,0,0);stroke-width:1"/>
<line x1="419" y1="290" x2="425" y2="290" style="stroke:rgb(0,0,0);stroke-width:1"/>
<line x1="422" y1="287" x2="422" y2="293" style="stroke:rgb(0,0,0);stroke-width:1"/>

<path d="M536 331 L605 331 L611 337 L611 346 L605 352 L536 352 L530 346 L530 337 Z" style="fill:rgb(255,255,255);stroke:rgb(0,0,0);stroke-width:1"/>
<text x="570.5" y="341.5" style="font-family:Arial;font-size:8pt;fill:rgb(0,0,0);font-weight:bold;text-anchor:middle;dominant-baseline:central">Expression</text>
<line x1="531" y1="351" x2="534" y2="348" style="stroke:rgb(0,0,0);stroke-width:2"/>
<path d="M534 348 L536 350 L537 345 L532 346 L534 348 Z" style="fill:rgb(0,0,0)"/>
<rect x="606" y="336" width="10" height="10" style="fill:rgb(255,255,255);stroke:rgb(0,0,0);stroke-width:1"/>
<line x1="608" y1="341" x2="614" y2="341" style="stroke:rgb(0,0,0);stroke-width:1"/>
<line x1="611" y1="338" x2="611" y2="344" style="stroke:rgb(0,0,0);stroke-width:1"/>

<line x1="510" y1="341" x2="530" y2="341" style="stroke:rgb(0,0,0);stroke-width:1;stroke-linecap:round"/>
<rect x="429" y="331" width="76" height="21" style="fill:rgb(255,255,255);stroke:rgb(0,0,0);stroke-width:1"/>
<text x="467" y="341.5" style="font-family:Arial;font-size:8pt;fill:rgb(0,0,0);font-weight:bold;text-anchor:middle;dominant-baseline:central">dimension</text>
<rect x="500" y="336" width="10" height="10" style="fill:rgb(255,255,255);stroke:rgb(0,0,0);stroke-width:1"/>
<line x1="502" y1="341" x2="508" y2="341" style="stroke:rgb(0,0,0);stroke-width:1"/>

<path d="M525 382 L591 382 L597 388 L597 397 L591 403 L525 403 L519 397 L519 388 Z" style="fill:rgb(255,255,255);stroke:rgb(0,0,0);stroke-width:1"/>
<text x="558" y="392.5" style="font-family:Arial;font-size:8pt;fill:rgb(0,0,0);font-weight:bold;text-anchor:middle;dominant-baseline:central">Arguments</text>
<line x1="520" y1="402" x2="523" y2="399" style="stroke:rgb(0,0,0);stroke-width:2"/>
<path d="M523 399 L525 401 L526 396 L521 397 L523 399 Z" style="fill:rgb(0,0,0)"/>
<rect x="592" y="387" width="10" height="10" style="fill:rgb(255,255,255);stroke:rgb(0,0,0);stroke-width:1"/>
<line x1="594" y1="392" x2="600" y2="392" style="stroke:rgb(0,0,0);stroke-width:1"/>
<line x1="597" y1="389" x2="597" y2="395" style="stroke:rgb(0,0,0);stroke-width:1"/>

<line x1="499" y1="392" x2="519" y2="392" style="stroke:rgb(0,0,0);stroke-width:1;stroke-linecap:round"/>
<rect x="429" y="382" width="65" height="21" style="fill:rgb(255,255,255);stroke:rgb(0,0,0);stroke-width:1"/>
<text x="461.5" y="392.5" style="font-family:Arial;font-size:8pt;fill:rgb(0,0,0);font-weight:bold;text-anchor:middle;dominant-baseline:central">modifier</text>
<rect x="489" y="387" width="10" height="10" style="fill:rgb(255,255,255);stroke:rgb(0,0,0);stroke-width:1"/>
<line x1="491" y1="392" x2="497" y2="392" style="stroke:rgb(0,0,0);stroke-width:1"/>

<line x1="419" y1="341" x2="429" y2="341" style="stroke:rgb(0,0,0);stroke-width:1;stroke-linecap:round"/>
<line x1="419" y1="392" x2="429" y2="392" style="stroke:rgb(0,0,0);stroke-width:1;stroke-linecap:round"/>
<line x1="419" y1="341" x2="419" y2="392" style="stroke:rgb(0,0,0);stroke-width:1;stroke-linecap:round"/>
<line x1="409" y1="367" x2="419" y2="367" style="stroke:rgb(0,0,0);stroke-width:1;stroke-linecap:round"/>
<path d="M378 360 L401 360 L407 366 L407 374 L401 380 L378 380 L372 374 L372 366 Z" style="fill:rgb(255,255,255);stroke:rgb(0,0,0);stroke-width:1;stroke-dasharray:4,1"/>
<path d="M375 357 L398 357 L404 363 L404 371 L398 377 L375 377 L369 371 L369 363 Z" style="fill:rgb(255,255,255);stroke:rgb(0,0,0);stroke-width:1;stroke-dasharray:4,1"/>
<line x1="374" y1="367" x2="378" y2="367" style="stroke:rgb(0,0,0);stroke-width:1"/>
<line x1="378" y1="367" x2="382" y2="363" style="stroke:rgb(0,0,0);stroke-width:1"/>
<line x1="390" y1="363" x2="394" y2="363" style="stroke:rgb(0,0,0);stroke-width:1"/>
<line x1="390" y1="367" x2="398" y2="367" style="stroke:rgb(0,0,0);stroke-width:1"/>
<line x1="390" y1="371" x2="394" y2="371" style="stroke:rgb(0,0,0);stroke-width:1"/>
<line x1="394" y1="363" x2="394" y2="371" style="stroke:rgb(0,0,0);stroke-width:1"/>
<ellipse cx="386" cy="363" rx="2" ry="2" style="rgb(0,0,0)"/>
<ellipse cx="386" cy="367" rx="2" ry="2" style="rgb(0,0,0)"/>
<ellipse cx="386" cy="371" rx="2" ry="2" style="rgb(0,0,0)"/>
<text x="399" y="387" style="font-family:Arial;font-size:7.2pt;fill:rgb(0,0,0);text-anchor:end;dominant-baseline:central">0..∞</text>
<rect x="399" y="362" width="10" height="10" style="fill:rgb(255,255,255);stroke:rgb(0,0,0);stroke-width:1"/>
<line x1="401" y1="367" x2="407" y2="367" style="stroke:rgb(0,0,0);stroke-width:1"/>

<rect x="369" y="433" width="76" height="21" style="fill:rgb(255,255,255);stroke:rgb(0,0,0);stroke-width:1;stroke-dasharray:4,1"/>
<text x="407" y="443.5" style="font-family:Arial;font-size:8pt;fill:rgb(0,0,0);font-weight:bold;text-anchor:middle;dominant-baseline:central">annotation</text>
<rect x="440" y="438" width="10" height="10" style="fill:rgb(255,255,255);stroke:rgb(0,0,0);stroke-width:1"/>
<line x1="442" y1="443" x2="448" y2="443" style="stroke:rgb(0,0,0);stroke-width:1"/>
<line x1="445" y1="440" x2="445" y2="446" style="stroke:rgb(0,0,0);stroke-width:1"/>

<line x1="359" y1="290" x2="369" y2="290" style="stroke:rgb(0,0,0);stroke-width:1;stroke-linecap:round"/>
<line x1="359" y1="367" x2="369" y2="367" style="stroke:rgb(0,0,0);stroke-width:1;stroke-linecap:round"/>
<line x1="359" y1="443" x2="369" y2="443" style="stroke:rgb(0,0,0);stroke-width:1;stroke-linecap:round"/>
<line x1="359" y1="290" x2="359" y2="443" style="stroke:rgb(0,0,0);stroke-width:1;stroke-linecap:round"/>
<line x1="349" y1="367" x2="359" y2="367" style="stroke:rgb(0,0,0);stroke-width:1;stroke-linecap:round"/>
<path d="M315 357 L338 357 L344 363 L344 371 L338 377 L315 377 L309 371 L309 363 Z" style="fill:rgb(255,255,255);stroke:rgb(0,0,0);stroke-width:1"/>
<line x1="312" y1="367" x2="341" y2="367" style="stroke:rgb(0,0,0);stroke-width:1"/>
<ellipse cx="321" cy="367" rx="2" ry="2" style="rgb(0,0,0)"/>
<ellipse cx="326" cy="367" rx="2" ry="2" style="rgb(0,0,0)"/>
<ellipse cx="331" cy="367" rx="2" ry="2" style="rgb(0,0,0)"/>
<rect x="339" y="362" width="10" height="10" style="fill:rgb(255,255,255);stroke:rgb(0,0,0);stroke-width:1"/>
<line x1="341" y1="367" x2="347" y2="367" style="stroke:rgb(0,0,0);stroke-width:1"/>

<line x1="289" y1="366" x2="309" y2="366" style="stroke:rgb(0,0,0);stroke-width:1;stroke-linecap:round"/>
<rect x="186" y="356" width="98" height="21" style="fill:rgb(255,255,255);stroke:rgb(0,0,0);stroke-width:1"/>
<text x="235" y="366.5" style="font-family:Arial;font-size:8pt;fill:rgb(0,0,0);font-weight:bold;text-anchor:middle;dominant-baseline:central">classDefinition</text>
<rect x="279" y="361" width="10" height="10" style="fill:rgb(255,255,255);stroke:rgb(0,0,0);stroke-width:1"/>
<line x1="281" y1="366" x2="287" y2="366" style="stroke:rgb(0,0,0);stroke-width:1"/>

<path d="M356 484 L397 484 L403 490 L403 499 L397 505 L356 505 L350 499 L350 490 Z" style="fill:rgb(255,255,255);stroke:rgb(0,0,0);stroke-width:1"/>
<text x="376.5" y="494.5" style="font-family:Arial;font-size:8pt;fill:rgb(0,0,0);font-weight:bold;text-anchor:middle;dominant-baseline:central">Class</text>
<line x1="351" y1="504" x2="354" y2="501" style="stroke:rgb(0,0,0);stroke-width:2"/>
<path d="M354 501 L356 503 L357 498 L352 499 L354 501 Z" style="fill:rgb(0,0,0)"/>
<rect x="398" y="489" width="10" height="10" style="fill:rgb(255,255,255);stroke:rgb(0,0,0);stroke-width:1"/>
<line x1="400" y1="494" x2="406" y2="494" style="stroke:rgb(0,0,0);stroke-width:1"/>
<line x1="403" y1="491" x2="403" y2="497" style="stroke:rgb(0,0,0);stroke-width:1"/>

<rect x="410" y="535" width="76" height="21" style="fill:rgb(255,255,255);stroke:rgb(0,0,0);stroke-width:1"/>
<text x="448" y="545.5" style="font-family:Arial;font-size:8pt;fill:rgb(0,0,0);font-weight:bold;text-anchor:middle;dominant-baseline:central">dimension</text>
<rect x="481" y="540" width="10" height="10" style="fill:rgb(255,255,255);stroke:rgb(0,0,0);stroke-width:1"/>
<line x1="483" y1="545" x2="489" y2="545" style="stroke:rgb(0,0,0);stroke-width:1"/>
<line x1="486" y1="542" x2="486" y2="548" style="stroke:rgb(0,0,0);stroke-width:1"/>

<rect x="410" y="586" width="65" height="21" style="fill:rgb(255,255,255);stroke:rgb(0,0,0);stroke-width:1"/>
<text x="442.5" y="596.5" style="font-family:Arial;font-size:8pt;fill:rgb(0,0,0);font-weight:bold;text-anchor:middle;dominant-baseline:central">modifier</text>
<rect x="470" y="591" width="10" height="10" style="fill:rgb(255,255,255);stroke:rgb(0,0,0);stroke-width:1"/>
<line x1="472" y1="596" x2="478" y2="596" style="stroke:rgb(0,0,0);stroke-width:1"/>
<line x1="475" y1="593" x2="475" y2="599" style="stroke:rgb(0,0,0);stroke-width:1"/>

<line x1="400" y1="545" x2="410" y2="545" style="stroke:rgb(0,0,0);stroke-width:1;stroke-linecap:round"/>
<line x1="400" y1="596" x2="410" y2="596" style="stroke:rgb(0,0,0);stroke-width:1;stroke-linecap:round"/>
<line x1="400" y1="545" x2="400" y2="596" style="stroke:rgb(0,0,0);stroke-width:1;stroke-linecap:round"/>
<line x1="390" y1="571" x2="400" y2="571" style="stroke:rgb(0,0,0);stroke-width:1;stroke-linecap:round"/>
<path d="M359 564 L382 564 L388 570 L388 578 L382 584 L359 584 L353 578 L353 570 Z" style="fill:rgb(255,255,255);stroke:rgb(0,0,0);stroke-width:1;stroke-dasharray:4,1"/>
<path d="M356 561 L379 561 L385 567 L385 575 L379 581 L356 581 L350 575 L350 567 Z" style="fill:rgb(255,255,255);stroke:rgb(0,0,0);stroke-width:1;stroke-dasharray:4,1"/>
<line x1="355" y1="571" x2="359" y2="571" style="stroke:rgb(0,0,0);stroke-width:1"/>
<line x1="359" y1="571" x2="363" y2="567" style="stroke:rgb(0,0,0);stroke-width:1"/>
<line x1="371" y1="567" x2="375" y2="567" style="stroke:rgb(0,0,0);stroke-width:1"/>
<line x1="371" y1="571" x2="379" y2="571" style="stroke:rgb(0,0,0);stroke-width:1"/>
<line x1="371" y1="575" x2="375" y2="575" style="stroke:rgb(0,0,0);stroke-width:1"/>
<line x1="375" y1="567" x2="375" y2="575" style="stroke:rgb(0,0,0);stroke-width:1"/>
<ellipse cx="367" cy="567" rx="2" ry="2" style="rgb(0,0,0)"/>
<ellipse cx="367" cy="571" rx="2" ry="2" style="rgb(0,0,0)"/>
<ellipse cx="367" cy="575" rx="2" ry="2" style="rgb(0,0,0)"/>
<text x="380" y="591" style="font-family:Arial;font-size:7.2pt;fill:rgb(0,0,0);text-anchor:end;dominant-baseline:central">0..∞</text>
<rect x="380" y="566" width="10" height="10" style="fill:rgb(255,255,255);stroke:rgb(0,0,0);stroke-width:1"/>
<line x1="382" y1="571" x2="388" y2="571" style="stroke:rgb(0,0,0);stroke-width:1"/>

<rect x="350" y="637" width="76" height="21" style="fill:rgb(255,255,255);stroke:rgb(0,0,0);stroke-width:1;stroke-dasharray:4,1"/>
<text x="388" y="647.5" style="font-family:Arial;font-size:8pt;fill:rgb(0,0,0);font-weight:bold;text-anchor:middle;dominant-baseline:central">annotation</text>
<rect x="421" y="642" width="10" height="10" style="fill:rgb(255,255,255);stroke:rgb(0,0,0);stroke-width:1"/>
<line x1="423" y1="647" x2="429" y2="647" style="stroke:rgb(0,0,0);stroke-width:1"/>
<line x1="426" y1="644" x2="426" y2="650" style="stroke:rgb(0,0,0);stroke-width:1"/>

<line x1="340" y1="494" x2="350" y2="494" style="stroke:rgb(0,0,0);stroke-width:1;stroke-linecap:round"/>
<line x1="340" y1="571" x2="350" y2="571" style="stroke:rgb(0,0,0);stroke-width:1;stroke-linecap:round"/>
<line x1="340" y1="647" x2="350" y2="647" style="stroke:rgb(0,0,0);stroke-width:1;stroke-linecap:round"/>
<line x1="340" y1="494" x2="340" y2="647" style="stroke:rgb(0,0,0);stroke-width:1;stroke-linecap:round"/>
<line x1="330" y1="571" x2="340" y2="571" style="stroke:rgb(0,0,0);stroke-width:1;stroke-linecap:round"/>
<path d="M296 561 L319 561 L325 567 L325 575 L319 581 L296 581 L290 575 L290 567 Z" style="fill:rgb(255,255,255);stroke:rgb(0,0,0);stroke-width:1"/>
<line x1="293" y1="571" x2="322" y2="571" style="stroke:rgb(0,0,0);stroke-width:1"/>
<ellipse cx="302" cy="571" rx="2" ry="2" style="rgb(0,0,0)"/>
<ellipse cx="307" cy="571" rx="2" ry="2" style="rgb(0,0,0)"/>
<ellipse cx="312" cy="571" rx="2" ry="2" style="rgb(0,0,0)"/>
<rect x="320" y="566" width="10" height="10" style="fill:rgb(255,255,255);stroke:rgb(0,0,0);stroke-width:1"/>
<line x1="322" y1="571" x2="328" y2="571" style="stroke:rgb(0,0,0);stroke-width:1"/>

<path d="M498 688 L567 688 L573 694 L573 703 L567 709 L498 709 L492 703 L492 694 Z" style="fill:rgb(255,255,255);stroke:rgb(0,0,0);stroke-width:1"/>
<text x="532.5" y="698.5" style="font-family:Arial;font-size:8pt;fill:rgb(0,0,0);font-weight:bold;text-anchor:middle;dominant-baseline:central">Expression</text>
<line x1="493" y1="708" x2="496" y2="705" style="stroke:rgb(0,0,0);stroke-width:2"/>
<path d="M496 705 L498 707 L499 702 L494 703 L496 705 Z" style="fill:rgb(0,0,0)"/>
<rect x="568" y="693" width="10" height="10" style="fill:rgb(255,255,255);stroke:rgb(0,0,0);stroke-width:1"/>
<line x1="570" y1="698" x2="576" y2="698" style="stroke:rgb(0,0,0);stroke-width:1"/>
<line x1="573" y1="695" x2="573" y2="701" style="stroke:rgb(0,0,0);stroke-width:1"/>

<line x1="472" y1="698" x2="492" y2="698" style="stroke:rgb(0,0,0);stroke-width:1;stroke-linecap:round"/>
<rect x="350" y="688" width="117" height="21" style="fill:rgb(255,255,255);stroke:rgb(0,0,0);stroke-width:1;stroke-dasharray:4,1"/>
<text x="408.5" y="698.5" style="font-family:Arial;font-size:8pt;fill:rgb(0,0,0);font-weight:bold;text-anchor:middle;dominant-baseline:central">bindingExpression</text>
<rect x="462" y="693" width="10" height="10" style="fill:rgb(255,255,255);stroke:rgb(0,0,0);stroke-width:1"/>
<line x1="464" y1="698" x2="470" y2="698" style="stroke:rgb(0,0,0);stroke-width:1"/>

<path d="M460 739 L529 739 L535 745 L535 754 L529 760 L460 760 L454 754 L454 745 Z" style="fill:rgb(255,255,255);stroke:rgb(0,0,0);stroke-width:1"/>
<text x="494.5" y="749.5" style="font-family:Arial;font-size:8pt;fill:rgb(0,0,0);font-weight:bold;text-anchor:middle;dominant-baseline:central">Expression</text>
<line x1="455" y1="759" x2="458" y2="756" style="stroke:rgb(0,0,0);stroke-width:2"/>
<path d="M458 756 L460 758 L461 753 L456 754 L458 756 Z" style="fill:rgb(0,0,0)"/>
<rect x="530" y="744" width="10" height="10" style="fill:rgb(255,255,255);stroke:rgb(0,0,0);stroke-width:1"/>
<line x1="532" y1="749" x2="538" y2="749" style="stroke:rgb(0,0,0);stroke-width:1"/>
<line x1="535" y1="746" x2="535" y2="752" style="stroke:rgb(0,0,0);stroke-width:1"/>

<line x1="434" y1="749" x2="454" y2="749" style="stroke:rgb(0,0,0);stroke-width:1;stroke-linecap:round"/>
<rect x="350" y="739" width="79" height="21" style="fill:rgb(255,255,255);stroke:rgb(0,0,0);stroke-width:1;stroke-dasharray:4,1"/>
<text x="389.5" y="749.5" style="font-family:Arial;font-size:8pt;fill:rgb(0,0,0);font-weight:bold;text-anchor:middle;dominant-baseline:central">conditional</text>
<rect x="424" y="744" width="10" height="10" style="fill:rgb(255,255,255);stroke:rgb(0,0,0);stroke-width:1"/>
<line x1="426" y1="749" x2="432" y2="749" style="stroke:rgb(0,0,0);stroke-width:1"/>

<line x1="340" y1="698" x2="350" y2="698" style="stroke:rgb(0,0,0);stroke-width:1;stroke-linecap:round"/>
<line x1="340" y1="749" x2="350" y2="749" style="stroke:rgb(0,0,0);stroke-width:1;stroke-linecap:round"/>
<line x1="340" y1="698" x2="340" y2="749" style="stroke:rgb(0,0,0);stroke-width:1;stroke-linecap:round"/>
<line x1="330" y1="724" x2="340" y2="724" style="stroke:rgb(0,0,0);stroke-width:1;stroke-linecap:round"/>
<path d="M296 714 L319 714 L325 720 L325 728 L319 734 L296 734 L290 728 L290 720 Z" style="fill:rgb(255,255,255);stroke:rgb(0,0,0);stroke-width:1"/>
<line x1="293" y1="724" x2="322" y2="724" style="stroke:rgb(0,0,0);stroke-width:1"/>
<ellipse cx="302" cy="724" rx="2" ry="2" style="rgb(0,0,0)"/>
<ellipse cx="307" cy="724" rx="2" ry="2" style="rgb(0,0,0)"/>
<ellipse cx="312" cy="724" rx="2" ry="2" style="rgb(0,0,0)"/>
<rect x="320" y="719" width="10" height="10" style="fill:rgb(255,255,255);stroke:rgb(0,0,0);stroke-width:1"/>
<line x1="322" y1="724" x2="328" y2="724" style="stroke:rgb(0,0,0);stroke-width:1"/>

<line x1="280" y1="571" x2="290" y2="571" style="stroke:rgb(0,0,0);stroke-width:1;stroke-linecap:round"/>
<line x1="280" y1="724" x2="290" y2="724" style="stroke:rgb(0,0,0);stroke-width:1;stroke-linecap:round"/>
<line x1="280" y1="571" x2="280" y2="724" style="stroke:rgb(0,0,0);stroke-width:1;stroke-linecap:round"/>
<line x1="270" y1="621" x2="280" y2="621" style="stroke:rgb(0,0,0);stroke-width:1;stroke-linecap:round"/>
<rect x="186" y="611" width="79" height="21" style="fill:rgb(255,255,255);stroke:rgb(0,0,0);stroke-width:1"/>
<text x="225.5" y="621.5" style="font-family:Arial;font-size:8pt;fill:rgb(0,0,0);font-weight:bold;text-anchor:middle;dominant-baseline:central">component</text>
<rect x="260" y="616" width="10" height="10" style="fill:rgb(255,255,255);stroke:rgb(0,0,0);stroke-width:1"/>
<line x1="262" y1="621" x2="268" y2="621" style="stroke:rgb(0,0,0);stroke-width:1"/>

<line x1="176" y1="137" x2="186" y2="137" style="stroke:rgb(0,0,0);stroke-width:1;stroke-linecap:round"/>
<line x1="176" y1="366" x2="186" y2="366" style="stroke:rgb(0,0,0);stroke-width:1;stroke-linecap:round"/>
<line x1="176" y1="621" x2="186" y2="621" style="stroke:rgb(0,0,0);stroke-width:1;stroke-linecap:round"/>
<line x1="176" y1="137" x2="176" y2="621" style="stroke:rgb(0,0,0);stroke-width:1;stroke-linecap:round"/>
<line x1="166" y1="392" x2="176" y2="392" style="stroke:rgb(0,0,0);stroke-width:1;stroke-linecap:round"/>
<path d="M132 382 L155 382 L161 388 L161 396 L155 402 L132 402 L126 396 L126 388 Z" style="fill:rgb(255,255,255);stroke:rgb(0,0,0);stroke-width:1"/>
<line x1="131" y1="392" x2="135" y2="392" style="stroke:rgb(0,0,0);stroke-width:1"/>
<line x1="135" y1="392" x2="139" y2="388" style="stroke:rgb(0,0,0);stroke-width:1"/>
<line x1="147" y1="388" x2="151" y2="388" style="stroke:rgb(0,0,0);stroke-width:1"/>
<line x1="147" y1="392" x2="155" y2="392" style="stroke:rgb(0,0,0);stroke-width:1"/>
<line x1="147" y1="396" x2="151" y2="396" style="stroke:rgb(0,0,0);stroke-width:1"/>
<line x1="151" y1="388" x2="151" y2="396" style="stroke:rgb(0,0,0);stroke-width:1"/>
<ellipse cx="143" cy="388" rx="2" ry="2" style="rgb(0,0,0)"/>
<ellipse cx="143" cy="392" rx="2" ry="2" style="rgb(0,0,0)"/>
<ellipse cx="143" cy="396" rx="2" ry="2" style="rgb(0,0,0)"/>
<rect x="156" y="387" width="10" height="10" style="fill:rgb(255,255,255);stroke:rgb(0,0,0);stroke-width:1"/>
<line x1="158" y1="392" x2="164" y2="392" style="stroke:rgb(0,0,0);stroke-width:1"/>

<line x1="106" y1="392" x2="126" y2="392" style="stroke:rgb(0,0,0);stroke-width:1;stroke-linecap:round"/>
<path d="M26 382 L95 382 L101 388 L101 397 L95 403 L26 403 L20 397 L20 388 Z" style="fill:rgb(255,255,255);stroke:rgb(0,0,0);stroke-width:1"/>
<text x="60.5" y="392.5" style="font-family:Arial;font-size:8pt;fill:rgb(0,0,0);font-weight:bold;text-anchor:middle;dominant-baseline:central">Declaration</text>
<rect x="96" y="387" width="10" height="10" style="fill:rgb(255,255,255);stroke:rgb(0,0,0);stroke-width:1"/>
<line x1="98" y1="392" x2="104" y2="392" style="stroke:rgb(0,0,0);stroke-width:1"/>
</svg>
