<?xml version="1.0" standalone="no"?>
<!DOCTYPE svg PUBLIC "-//W3C//DTD SVG 1.1//EN" "http://www.w3.org/Graphics/SVG/1.1/DTD/svg11.dtd">
<svg width="100%" height="100%" version="1.1" xmlns="http://www.w3.org/2000/svg">
<rect x="327" y="25" width="39" height="21" style="fill:rgb(255,255,255);stroke:rgb(0,0,0);stroke-width:1"/>
<text x="346.5" y="35.5" style="font-family:Arial;font-size:8pt;fill:rgb(0,0,0);font-weight:bold;text-anchor:middle;dominant-baseline:central">real</text>

<rect x="327" y="76" width="54" height="21" style="fill:rgb(255,255,255);stroke:rgb(0,0,0);stroke-width:1"/>
<text x="354" y="86.5" style="font-family:Arial;font-size:8pt;fill:rgb(0,0,0);font-weight:bold;text-anchor:middle;dominant-baseline:central">integer</text>

<rect x="477" y="127" width="39" height="21" style="fill:rgb(255,255,255);stroke:rgb(0,0,0);stroke-width:1"/>
<text x="496.5" y="137.5" style="font-family:Arial;font-size:8pt;fill:rgb(0,0,0);font-weight:bold;text-anchor:middle;dominant-baseline:central">true</text>

<rect x="477" y="178" width="44" height="21" style="fill:rgb(255,255,255);stroke:rgb(0,0,0);stroke-width:1"/>
<text x="499" y="188.5" style="font-family:Arial;font-size:8pt;fill:rgb(0,0,0);font-weight:bold;text-anchor:middle;dominant-baseline:central">false</text>

<line x1="467" y1="137" x2="477" y2="137" style="stroke:rgb(0,0,0);stroke-width:1;stroke-linecap:round"/>
<line x1="467" y1="188" x2="477" y2="188" style="stroke:rgb(0,0,0);stroke-width:1;stroke-linecap:round"/>
<line x1="467" y1="137" x2="467" y2="188" style="stroke:rgb(0,0,0);stroke-width:1;stroke-linecap:round"/>
<line x1="457" y1="163" x2="467" y2="163" style="stroke:rgb(0,0,0);stroke-width:1;stroke-linecap:round"/>
<path d="M423 153 L446 153 L452 159 L452 167 L446 173 L423 173 L417 167 L417 159 Z" style="fill:rgb(255,255,255);stroke:rgb(0,0,0);stroke-width:1"/>
<line x1="422" y1="163" x2="426" y2="163" style="stroke:rgb(0,0,0);stroke-width:1"/>
<line x1="426" y1="163" x2="430" y2="159" style="stroke:rgb(0,0,0);stroke-width:1"/>
<line x1="438" y1="159" x2="442" y2="159" style="stroke:rgb(0,0,0);stroke-width:1"/>
<line x1="438" y1="163" x2="446" y2="163" style="stroke:rgb(0,0,0);stroke-width:1"/>
<line x1="438" y1="167" x2="442" y2="167" style="stroke:rgb(0,0,0);stroke-width:1"/>
<line x1="442" y1="159" x2="442" y2="167" style="stroke:rgb(0,0,0);stroke-width:1"/>
<ellipse cx="434" cy="159" rx="2" ry="2" style="rgb(0,0,0)"/>
<ellipse cx="434" cy="163" rx="2" ry="2" style="rgb(0,0,0)"/>
<ellipse cx="434" cy="167" rx="2" ry="2" style="rgb(0,0,0)"/>
<rect x="447" y="158" width="10" height="10" style="fill:rgb(255,255,255);stroke:rgb(0,0,0);stroke-width:1"/>
<line x1="449" y1="163" x2="455" y2="163" style="stroke:rgb(0,0,0);stroke-width:1"/>

<line x1="397" y1="162" x2="417" y2="162" style="stroke:rgb(0,0,0);stroke-width:1;stroke-linecap:round"/>
<path d="M333 152 L386 152 L392 158 L392 167 L386 173 L333 173 L327 167 L327 158 Z" style="fill:rgb(255,255,255);stroke:rgb(0,0,0);stroke-width:1"/>
<text x="359.5" y="162.5" style="font-family:Arial;font-size:8pt;fill:rgb(0,0,0);font-weight:bold;text-anchor:middle;dominant-baseline:central">Boolean</text>
<line x1="328" y1="172" x2="331" y2="169" style="stroke:rgb(0,0,0);stroke-width:2"/>
<path d="M331 169 L333 171 L334 166 L329 167 L331 169 Z" style="fill:rgb(0,0,0)"/>
<rect x="387" y="157" width="10" height="10" style="fill:rgb(255,255,255);stroke:rgb(0,0,0);stroke-width:1"/>
<line x1="389" y1="162" x2="395" y2="162" style="stroke:rgb(0,0,0);stroke-width:1"/>

<rect x="327" y="229" width="48" height="21" style="fill:rgb(255,255,255);stroke:rgb(0,0,0);stroke-width:1"/>
<text x="351" y="239.5" style="font-family:Arial;font-size:8pt;fill:rgb(0,0,0);font-weight:bold;text-anchor:middle;dominant-baseline:central">string</text>

<line x1="317" y1="35" x2="327" y2="35" style="stroke:rgb(0,0,0);stroke-width:1;stroke-linecap:round"/>
<line x1="317" y1="86" x2="327" y2="86" style="stroke:rgb(0,0,0);stroke-width:1;stroke-linecap:round"/>
<line x1="317" y1="162" x2="327" y2="162" style="stroke:rgb(0,0,0);stroke-width:1;stroke-linecap:round"/>
<line x1="317" y1="239" x2="327" y2="239" style="stroke:rgb(0,0,0);stroke-width:1;stroke-linecap:round"/>
<line x1="317" y1="35" x2="317" y2="239" style="stroke:rgb(0,0,0);stroke-width:1;stroke-linecap:round"/>
<line x1="307" y1="137" x2="317" y2="137" style="stroke:rgb(0,0,0);stroke-width:1;stroke-linecap:round"/>
<path d="M273 127 L296 127 L302 133 L302 141 L296 147 L273 147 L267 141 L267 133 Z" style="fill:rgb(255,255,255);stroke:rgb(0,0,0);stroke-width:1"/>
<line x1="272" y1="137" x2="276" y2="137" style="stroke:rgb(0,0,0);stroke-width:1"/>
<line x1="276" y1="137" x2="280" y2="133" style="stroke:rgb(0,0,0);stroke-width:1"/>
<line x1="288" y1="133" x2="292" y2="133" style="stroke:rgb(0,0,0);stroke-width:1"/>
<line x1="288" y1="137" x2="296" y2="137" style="stroke:rgb(0,0,0);stroke-width:1"/>
<line x1="288" y1="141" x2="292" y2="141" style="stroke:rgb(0,0,0);stroke-width:1"/>
<line x1="292" y1="133" x2="292" y2="141" style="stroke:rgb(0,0,0);stroke-width:1"/>
<ellipse cx="284" cy="133" rx="2" ry="2" style="rgb(0,0,0)"/>
<ellipse cx="284" cy="137" rx="2" ry="2" style="rgb(0,0,0)"/>
<ellipse cx="284" cy="141" rx="2" ry="2" style="rgb(0,0,0)"/>
<rect x="297" y="132" width="10" height="10" style="fill:rgb(255,255,255);stroke:rgb(0,0,0);stroke-width:1"/>
<line x1="299" y1="137" x2="305" y2="137" style="stroke:rgb(0,0,0);stroke-width:1"/>

<line x1="247" y1="137" x2="267" y2="137" style="stroke:rgb(0,0,0);stroke-width:1;stroke-linecap:round"/>
<path d="M192 127 L236 127 L242 133 L242 142 L236 148 L192 148 L186 142 L186 133 Z" style="fill:rgb(255,255,255);stroke:rgb(0,0,0);stroke-width:1"/>
<text x="214" y="137.5" style="font-family:Arial;font-size:8pt;fill:rgb(0,0,0);font-weight:bold;text-anchor:middle;dominant-baseline:central">Literal</text>
<line x1="187" y1="147" x2="190" y2="144" style="stroke:rgb(0,0,0);stroke-width:2"/>
<path d="M190 144 L192 146 L193 141 L188 142 L190 144 Z" style="fill:rgb(0,0,0)"/>
<rect x="237" y="132" width="10" height="10" style="fill:rgb(255,255,255);stroke:rgb(0,0,0);stroke-width:1"/>
<line x1="239" y1="137" x2="245" y2="137" style="stroke:rgb(0,0,0);stroke-width:1"/>

<path d="M550 280 L619 280 L625 286 L625 295 L619 301 L550 301 L544 295 L544 286 Z" style="fill:rgb(255,255,255);stroke:rgb(0,0,0);stroke-width:1"/>
<text x="584.5" y="290.5" style="font-family:Arial;font-size:8pt;fill:rgb(0,0,0);font-weight:bold;text-anchor:middle;dominant-baseline:central">Expression</text>
<line x1="545" y1="300" x2="548" y2="297" style="stroke:rgb(0,0,0);stroke-width:2"/>
<path d="M548 297 L550 299 L551 294 L546 295 L548 297 Z" style="fill:rgb(0,0,0)"/>
<rect x="620" y="285" width="10" height="10" style="fill:rgb(255,255,255);stroke:rgb(0,0,0);stroke-width:1"/>
<line x1="622" y1="290" x2="628" y2="290" style="stroke:rgb(0,0,0);stroke-width:1"/>
<line x1="625" y1="287" x2="625" y2="293" style="stroke:rgb(0,0,0);stroke-width:1"/>

<line x1="524" y1="290" x2="544" y2="290" style="stroke:rgb(0,0,0);stroke-width:1;stroke-linecap:round"/>
<rect x="470" y="280" width="49" height="21" style="fill:rgb(255,255,255);stroke:rgb(0,0,0);stroke-width:1"/>
<text x="494.5" y="290.5" style="font-family:Arial;font-size:8pt;fill:rgb(0,0,0);font-weight:bold;text-anchor:middle;dominant-baseline:central">cond</text>
<rect x="514" y="285" width="10" height="10" style="fill:rgb(255,255,255);stroke:rgb(0,0,0);stroke-width:1"/>
<line x1="516" y1="290" x2="522" y2="290" style="stroke:rgb(0,0,0);stroke-width:1"/>

<path d="M547 331 L616 331 L622 337 L622 346 L616 352 L547 352 L541 346 L541 337 Z" style="fill:rgb(255,255,255);stroke:rgb(0,0,0);stroke-width:1"/>
<text x="581.5" y="341.5" style="font-family:Arial;font-size:8pt;fill:rgb(0,0,0);font-weight:bold;text-anchor:middle;dominant-baseline:central">Expression</text>
<line x1="542" y1="351" x2="545" y2="348" style="stroke:rgb(0,0,0);stroke-width:2"/>
<path d="M545 348 L547 350 L548 345 L543 346 L545 348 Z" style="fill:rgb(0,0,0)"/>
<rect x="617" y="336" width="10" height="10" style="fill:rgb(255,255,255);stroke:rgb(0,0,0);stroke-width:1"/>
<line x1="619" y1="341" x2="625" y2="341" style="stroke:rgb(0,0,0);stroke-width:1"/>
<line x1="622" y1="338" x2="622" y2="344" style="stroke:rgb(0,0,0);stroke-width:1"/>

<line x1="521" y1="341" x2="541" y2="341" style="stroke:rgb(0,0,0);stroke-width:1;stroke-linecap:round"/>
<rect x="470" y="331" width="46" height="21" style="fill:rgb(255,255,255);stroke:rgb(0,0,0);stroke-width:1"/>
<text x="493" y="341.5" style="font-family:Arial;font-size:8pt;fill:rgb(0,0,0);font-weight:bold;text-anchor:middle;dominant-baseline:central">then</text>
<rect x="511" y="336" width="10" height="10" style="fill:rgb(255,255,255);stroke:rgb(0,0,0);stroke-width:1"/>
<line x1="513" y1="341" x2="519" y2="341" style="stroke:rgb(0,0,0);stroke-width:1"/>

<line x1="460" y1="290" x2="470" y2="290" style="stroke:rgb(0,0,0);stroke-width:1;stroke-linecap:round"/>
<line x1="460" y1="341" x2="470" y2="341" style="stroke:rgb(0,0,0);stroke-width:1;stroke-linecap:round"/>
<line x1="460" y1="290" x2="460" y2="341" style="stroke:rgb(0,0,0);stroke-width:1;stroke-linecap:round"/>
<line x1="450" y1="316" x2="460" y2="316" style="stroke:rgb(0,0,0);stroke-width:1;stroke-linecap:round"/>
<path d="M416 306 L439 306 L445 312 L445 320 L439 326 L416 326 L410 320 L410 312 Z" style="fill:rgb(255,255,255);stroke:rgb(0,0,0);stroke-width:1"/>
<line x1="413" y1="316" x2="442" y2="316" style="stroke:rgb(0,0,0);stroke-width:1"/>
<ellipse cx="422" cy="316" rx="2" ry="2" style="rgb(0,0,0)"/>
<ellipse cx="427" cy="316" rx="2" ry="2" style="rgb(0,0,0)"/>
<ellipse cx="432" cy="316" rx="2" ry="2" style="rgb(0,0,0)"/>
<rect x="440" y="311" width="10" height="10" style="fill:rgb(255,255,255);stroke:rgb(0,0,0);stroke-width:1"/>
<line x1="442" y1="316" x2="448" y2="316" style="stroke:rgb(0,0,0);stroke-width:1"/>

<line x1="390" y1="315" x2="410" y2="315" style="stroke:rgb(0,0,0);stroke-width:1;stroke-linecap:round"/>
<path d="M308 305 L379 305 L385 311 L385 320 L379 326 L308 326 L302 320 L302 311 Z" style="fill:rgb(255,255,255);stroke:rgb(0,0,0);stroke-width:1"/>
<text x="343.5" y="315.5" style="font-family:Arial;font-size:8pt;fill:rgb(0,0,0);font-weight:bold;text-anchor:middle;dominant-baseline:central">ExprBranch</text>
<line x1="303" y1="325" x2="306" y2="322" style="stroke:rgb(0,0,0);stroke-width:2"/>
<path d="M306 322 L308 324 L309 319 L304 320 L306 322 Z" style="fill:rgb(0,0,0)"/>
<rect x="380" y="310" width="10" height="10" style="fill:rgb(255,255,255);stroke:rgb(0,0,0);stroke-width:1"/>
<line x1="382" y1="315" x2="388" y2="315" style="stroke:rgb(0,0,0);stroke-width:1"/>

<path d="M379 382 L448 382 L454 388 L454 397 L448 403 L379 403 L373 397 L373 388 Z" style="fill:rgb(255,255,255);stroke:rgb(0,0,0);stroke-width:1"/>
<text x="413.5" y="392.5" style="font-family:Arial;font-size:8pt;fill:rgb(0,0,0);font-weight:bold;text-anchor:middle;dominant-baseline:central">Expression</text>
<line x1="374" y1="402" x2="377" y2="399" style="stroke:rgb(0,0,0);stroke-width:2"/>
<path d="M377 399 L379 401 L380 396 L375 397 L377 399 Z" style="fill:rgb(0,0,0)"/>
<rect x="449" y="387" width="10" height="10" style="fill:rgb(255,255,255);stroke:rgb(0,0,0);stroke-width:1"/>
<line x1="451" y1="392" x2="457" y2="392" style="stroke:rgb(0,0,0);stroke-width:1"/>
<line x1="454" y1="389" x2="454" y2="395" style="stroke:rgb(0,0,0);stroke-width:1"/>

<line x1="353" y1="392" x2="373" y2="392" style="stroke:rgb(0,0,0);stroke-width:1;stroke-linecap:round"/>
<rect x="302" y="382" width="46" height="21" style="fill:rgb(255,255,255);stroke:rgb(0,0,0);stroke-width:1"/>
<text x="325" y="392.5" style="font-family:Arial;font-size:8pt;fill:rgb(0,0,0);font-weight:bold;text-anchor:middle;dominant-baseline:central">else</text>
<rect x="343" y="387" width="10" height="10" style="fill:rgb(255,255,255);stroke:rgb(0,0,0);stroke-width:1"/>
<line x1="345" y1="392" x2="351" y2="392" style="stroke:rgb(0,0,0);stroke-width:1"/>

<line x1="292" y1="315" x2="302" y2="315" style="stroke:rgb(0,0,0);stroke-width:1;stroke-linecap:round"/>
<line x1="292" y1="392" x2="302" y2="392" style="stroke:rgb(0,0,0);stroke-width:1;stroke-linecap:round"/>
<line x1="292" y1="315" x2="292" y2="392" style="stroke:rgb(0,0,0);stroke-width:1;stroke-linecap:round"/>
<line x1="282" y1="341" x2="292" y2="341" style="stroke:rgb(0,0,0);stroke-width:1;stroke-linecap:round"/>
<path d="M248 331 L271 331 L277 337 L277 345 L271 351 L248 351 L242 345 L242 337 Z" style="fill:rgb(255,255,255);stroke:rgb(0,0,0);stroke-width:1"/>
<line x1="245" y1="341" x2="274" y2="341" style="stroke:rgb(0,0,0);stroke-width:1"/>
<ellipse cx="254" cy="341" rx="2" ry="2" style="rgb(0,0,0)"/>
<ellipse cx="259" cy="341" rx="2" ry="2" style="rgb(0,0,0)"/>
<ellipse cx="264" cy="341" rx="2" ry="2" style="rgb(0,0,0)"/>
<rect x="272" y="336" width="10" height="10" style="fill:rgb(255,255,255);stroke:rgb(0,0,0);stroke-width:1"/>
<line x1="274" y1="341" x2="280" y2="341" style="stroke:rgb(0,0,0);stroke-width:1"/>

<line x1="222" y1="341" x2="242" y2="341" style="stroke:rgb(0,0,0);stroke-width:1;stroke-linecap:round"/>
<rect x="186" y="331" width="31" height="21" style="fill:rgb(255,255,255);stroke:rgb(0,0,0);stroke-width:1"/>
<text x="201.5" y="341.5" style="font-family:Arial;font-size:8pt;fill:rgb(0,0,0);font-weight:bold;text-anchor:middle;dominant-baseline:central">if</text>
<rect x="212" y="336" width="10" height="10" style="fill:rgb(255,255,255);stroke:rgb(0,0,0);stroke-width:1"/>
<line x1="214" y1="341" x2="220" y2="341" style="stroke:rgb(0,0,0);stroke-width:1"/>

<path d="M418 433 L487 433 L493 439 L493 448 L487 454 L418 454 L412 448 L412 439 Z" style="fill:rgb(255,255,255);stroke:rgb(0,0,0);stroke-width:1"/>
<text x="452.5" y="443.5" style="font-family:Arial;font-size:8pt;fill:rgb(0,0,0);font-weight:bold;text-anchor:middle;dominant-baseline:central">Expression</text>
<line x1="413" y1="453" x2="416" y2="450" style="stroke:rgb(0,0,0);stroke-width:2"/>
<path d="M416 450 L418 452 L419 447 L414 448 L416 450 Z" style="fill:rgb(0,0,0)"/>
<rect x="488" y="438" width="10" height="10" style="fill:rgb(255,255,255);stroke:rgb(0,0,0);stroke-width:1"/>
<line x1="490" y1="443" x2="496" y2="443" style="stroke:rgb(0,0,0);stroke-width:1"/>
<line x1="493" y1="440" x2="493" y2="446" style="stroke:rgb(0,0,0);stroke-width:1"/>

<line x1="392" y1="443" x2="412" y2="443" style="stroke:rgb(0,0,0);stroke-width:1;stroke-linecap:round"/>
<rect x="323" y="433" width="64" height="21" style="fill:rgb(255,255,255);stroke:rgb(0,0,0);stroke-width:1;stroke-dasharray:4,1"/>
<text x="355" y="443.5" style="font-family:Arial;font-size:8pt;fill:rgb(0,0,0);font-weight:bold;text-anchor:middle;dominant-baseline:central">function</text>
<rect x="382" y="438" width="10" height="10" style="fill:rgb(255,255,255);stroke:rgb(0,0,0);stroke-width:1"/>
<line x1="384" y1="443" x2="390" y2="443" style="stroke:rgb(0,0,0);stroke-width:1"/>

<path d="M492 484 L561 484 L567 490 L567 499 L561 505 L492 505 L486 499 L486 490 Z" style="fill:rgb(255,255,255);stroke:rgb(0,0,0);stroke-width:1"/>
<text x="526.5" y="494.5" style="font-family:Arial;font-size:8pt;fill:rgb(0,0,0);font-weight:bold;text-anchor:middle;dominant-baseline:central">Expression</text>
<line x1="487" y1="504" x2="490" y2="501" style="stroke:rgb(0,0,0);stroke-width:2"/>
<path d="M490 501 L492 503 L493 498 L488 499 L490 501 Z" style="fill:rgb(0,0,0)"/>
<rect x="562" y="489" width="10" height="10" style="fill:rgb(255,255,255);stroke:rgb(0,0,0);stroke-width:1"/>
<line x1="564" y1="494" x2="570" y2="494" style="stroke:rgb(0,0,0);stroke-width:1"/>
<line x1="567" y1="491" x2="567" y2="497" style="stroke:rgb(0,0,0);stroke-width:1"/>

<path d="M563 535 L632 535 L638 541 L638 550 L632 556 L563 556 L557 550 L557 541 Z" style="fill:rgb(255,255,255);stroke:rgb(0,0,0);stroke-width:1"/>
<text x="597.5" y="545.5" style="font-family:Arial;font-size:8pt;fill:rgb(0,0,0);font-weight:bold;text-anchor:middle;dominant-baseline:central">Expression</text>
<line x1="558" y1="555" x2="561" y2="552" style="stroke:rgb(0,0,0);stroke-width:2"/>
<path d="M561 552 L563 554 L564 549 L559 550 L561 552 Z" style="fill:rgb(0,0,0)"/>
<rect x="633" y="540" width="10" height="10" style="fill:rgb(255,255,255);stroke:rgb(0,0,0);stroke-width:1"/>
<line x1="635" y1="545" x2="641" y2="545" style="stroke:rgb(0,0,0);stroke-width:1"/>
<line x1="638" y1="542" x2="638" y2="548" style="stroke:rgb(0,0,0);stroke-width:1"/>

<line x1="537" y1="545" x2="557" y2="545" style="stroke:rgb(0,0,0);stroke-width:1;stroke-linecap:round"/>
<rect x="489" y="538" width="46" height="21" style="fill:rgb(255,255,255);stroke:rgb(0,0,0);stroke-width:1;stroke-dasharray:4,1"/>
<rect x="486" y="535" width="46" height="21" style="fill:rgb(255,255,255);stroke:rgb(0,0,0);stroke-width:1;stroke-dasharray:4,1"/>
<text x="509" y="545.5" style="font-family:Arial;font-size:8pt;fill:rgb(0,0,0);font-weight:bold;text-anchor:middle;dominant-baseline:central">item</text>
<text x="527" y="566" style="font-family:Arial;font-size:7.2pt;fill:rgb(0,0,0);text-anchor:end;dominant-baseline:central">0..∞</text>
<rect x="527" y="540" width="10" height="10" style="fill:rgb(255,255,255);stroke:rgb(0,0,0);stroke-width:1"/>
<line x1="529" y1="545" x2="535" y2="545" style="stroke:rgb(0,0,0);stroke-width:1"/>

<line x1="476" y1="494" x2="486" y2="494" style="stroke:rgb(0,0,0);stroke-width:1;stroke-linecap:round"/>
<line x1="476" y1="545" x2="486" y2="545" style="stroke:rgb(0,0,0);stroke-width:1;stroke-linecap:round"/>
<line x1="476" y1="494" x2="476" y2="545" style="stroke:rgb(0,0,0);stroke-width:1;stroke-linecap:round"/>
<line x1="466" y1="520" x2="476" y2="520" style="stroke:rgb(0,0,0);stroke-width:1;stroke-linecap:round"/>
<path d="M432 510 L455 510 L461 516 L461 524 L455 530 L432 530 L426 524 L426 516 Z" style="fill:rgb(255,255,255);stroke:rgb(0,0,0);stroke-width:1"/>
<line x1="429" y1="520" x2="458" y2="520" style="stroke:rgb(0,0,0);stroke-width:1"/>
<ellipse cx="438" cy="520" rx="2" ry="2" style="rgb(0,0,0)"/>
<ellipse cx="443" cy="520" rx="2" ry="2" style="rgb(0,0,0)"/>
<ellipse cx="448" cy="520" rx="2" ry="2" style="rgb(0,0,0)"/>
<rect x="456" y="515" width="10" height="10" style="fill:rgb(255,255,255);stroke:rgb(0,0,0);stroke-width:1"/>
<line x1="458" y1="520" x2="464" y2="520" style="stroke:rgb(0,0,0);stroke-width:1"/>

<line x1="406" y1="519" x2="426" y2="519" style="stroke:rgb(0,0,0);stroke-width:1;stroke-linecap:round"/>
<path d="M329 509 L395 509 L401 515 L401 524 L395 530 L329 530 L323 524 L323 515 Z" style="fill:rgb(255,255,255);stroke:rgb(0,0,0);stroke-width:1"/>
<text x="362" y="519.5" style="font-family:Arial;font-size:8pt;fill:rgb(0,0,0);font-weight:bold;text-anchor:middle;dominant-baseline:central">Arguments</text>
<line x1="324" y1="529" x2="327" y2="526" style="stroke:rgb(0,0,0);stroke-width:2"/>
<path d="M327 526 L329 528 L330 523 L325 524 L327 526 Z" style="fill:rgb(0,0,0)"/>
<rect x="396" y="514" width="10" height="10" style="fill:rgb(255,255,255);stroke:rgb(0,0,0);stroke-width:1"/>
<line x1="398" y1="519" x2="404" y2="519" style="stroke:rgb(0,0,0);stroke-width:1"/>

<line x1="313" y1="443" x2="323" y2="443" style="stroke:rgb(0,0,0);stroke-width:1;stroke-linecap:round"/>
<line x1="313" y1="519" x2="323" y2="519" style="stroke:rgb(0,0,0);stroke-width:1;stroke-linecap:round"/>
<line x1="313" y1="443" x2="313" y2="519" style="stroke:rgb(0,0,0);stroke-width:1;stroke-linecap:round"/>
<line x1="303" y1="494" x2="313" y2="494" style="stroke:rgb(0,0,0);stroke-width:1;stroke-linecap:round"/>
<path d="M269 484 L292 484 L298 490 L298 498 L292 504 L269 504 L263 498 L263 490 Z" style="fill:rgb(255,255,255);stroke:rgb(0,0,0);stroke-width:1"/>
<line x1="266" y1="494" x2="295" y2="494" style="stroke:rgb(0,0,0);stroke-width:1"/>
<ellipse cx="275" cy="494" rx="2" ry="2" style="rgb(0,0,0)"/>
<ellipse cx="280" cy="494" rx="2" ry="2" style="rgb(0,0,0)"/>
<ellipse cx="285" cy="494" rx="2" ry="2" style="rgb(0,0,0)"/>
<rect x="293" y="489" width="10" height="10" style="fill:rgb(255,255,255);stroke:rgb(0,0,0);stroke-width:1"/>
<line x1="295" y1="494" x2="301" y2="494" style="stroke:rgb(0,0,0);stroke-width:1"/>

<line x1="243" y1="494" x2="263" y2="494" style="stroke:rgb(0,0,0);stroke-width:1;stroke-linecap:round"/>
<rect x="186" y="484" width="52" height="21" style="fill:rgb(255,255,255);stroke:rgb(0,0,0);stroke-width:1"/>
<text x="212" y="494.5" style="font-family:Arial;font-size:8pt;fill:rgb(0,0,0);font-weight:bold;text-anchor:middle;dominant-baseline:central">apply</text>
<rect x="233" y="489" width="10" height="10" style="fill:rgb(255,255,255);stroke:rgb(0,0,0);stroke-width:1"/>
<line x1="235" y1="494" x2="241" y2="494" style="stroke:rgb(0,0,0);stroke-width:1"/>

<path d="M283 586 L352 586 L358 592 L358 601 L352 607 L283 607 L277 601 L277 592 Z" style="fill:rgb(255,255,255);stroke:rgb(0,0,0);stroke-width:1"/>
<text x="317.5" y="596.5" style="font-family:Arial;font-size:8pt;fill:rgb(0,0,0);font-weight:bold;text-anchor:middle;dominant-baseline:central">Expression</text>
<line x1="278" y1="606" x2="281" y2="603" style="stroke:rgb(0,0,0);stroke-width:2"/>
<path d="M281 603 L283 605 L284 600 L279 601 L281 603 Z" style="fill:rgb(0,0,0)"/>
<rect x="353" y="591" width="10" height="10" style="fill:rgb(255,255,255);stroke:rgb(0,0,0);stroke-width:1"/>
<line x1="355" y1="596" x2="361" y2="596" style="stroke:rgb(0,0,0);stroke-width:1"/>
<line x1="358" y1="593" x2="358" y2="599" style="stroke:rgb(0,0,0);stroke-width:1"/>

<line x1="257" y1="596" x2="277" y2="596" style="stroke:rgb(0,0,0);stroke-width:1;stroke-linecap:round"/>
<rect x="186" y="586" width="66" height="21" style="fill:rgb(255,255,255);stroke:rgb(0,0,0);stroke-width:1"/>
<text x="219" y="596.5" style="font-family:Arial;font-size:8pt;fill:rgb(0,0,0);font-weight:bold;text-anchor:middle;dominant-baseline:central">operator</text>
<rect x="247" y="591" width="10" height="10" style="fill:rgb(255,255,255);stroke:rgb(0,0,0);stroke-width:1"/>
<line x1="249" y1="596" x2="255" y2="596" style="stroke:rgb(0,0,0);stroke-width:1"/>

<rect x="712" y="637" width="50" height="21" style="fill:rgb(255,255,255);stroke:rgb(0,0,0);stroke-width:1"/>
<text x="737" y="647.5" style="font-family:Arial;font-size:8pt;fill:rgb(0,0,0);font-weight:bold;text-anchor:middle;dominant-baseline:central">builtin</text>

<rect x="712" y="688" width="44" height="21" style="fill:rgb(255,255,255);stroke:rgb(0,0,0);stroke-width:1"/>
<text x="734" y="698.5" style="font-family:Arial;font-size:8pt;fill:rgb(0,0,0);font-weight:bold;text-anchor:middle;dominant-baseline:central">local</text>

<rect x="712" y="739" width="50" height="21" style="fill:rgb(255,255,255);stroke:rgb(0,0,0);stroke-width:1"/>
<text x="737" y="749.5" style="font-family:Arial;font-size:8pt;fill:rgb(0,0,0);font-weight:bold;text-anchor:middle;dominant-baseline:central">global</text>

<line x1="702" y1="647" x2="712" y2="647" style="stroke:rgb(0,0,0);stroke-width:1;stroke-linecap:round"/>
<line x1="702" y1="698" x2="712" y2="698" style="stroke:rgb(0,0,0);stroke-width:1;stroke-linecap:round"/>
<line x1="702" y1="749" x2="712" y2="749" style="stroke:rgb(0,0,0);stroke-width:1;stroke-linecap:round"/>
<line x1="702" y1="647" x2="702" y2="749" style="stroke:rgb(0,0,0);stroke-width:1;stroke-linecap:round"/>
<line x1="692" y1="698" x2="702" y2="698" style="stroke:rgb(0,0,0);stroke-width:1;stroke-linecap:round"/>
<path d="M658 688 L681 688 L687 694 L687 702 L681 708 L658 708 L652 702 L652 694 Z" style="fill:rgb(255,255,255);stroke:rgb(0,0,0);stroke-width:1"/>
<line x1="657" y1="698" x2="661" y2="698" style="stroke:rgb(0,0,0);stroke-width:1"/>
<line x1="661" y1="698" x2="665" y2="694" style="stroke:rgb(0,0,0);stroke-width:1"/>
<line x1="673" y1="694" x2="677" y2="694" style="stroke:rgb(0,0,0);stroke-width:1"/>
<line x1="673" y1="698" x2="681" y2="698" style="stroke:rgb(0,0,0);stroke-width:1"/>
<line x1="673" y1="702" x2="677" y2="702" style="stroke:rgb(0,0,0);stroke-width:1"/>
<line x1="677" y1="694" x2="677" y2="702" style="stroke:rgb(0,0,0);stroke-width:1"/>
<ellipse cx="669" cy="694" rx="2" ry="2" style="rgb(0,0,0)"/>
<ellipse cx="669" cy="698" rx="2" ry="2" style="rgb(0,0,0)"/>
<ellipse cx="669" cy="702" rx="2" ry="2" style="rgb(0,0,0)"/>
<rect x="682" y="693" width="10" height="10" style="fill:rgb(255,255,255);stroke:rgb(0,0,0);stroke-width:1"/>
<line x1="684" y1="698" x2="690" y2="698" style="stroke:rgb(0,0,0);stroke-width:1"/>

<line x1="632" y1="698" x2="652" y2="698" style="stroke:rgb(0,0,0);stroke-width:1;stroke-linecap:round"/>
<path d="M540 688 L621 688 L627 694 L627 703 L621 709 L540 709 L534 703 L534 694 Z" style="fill:rgb(255,255,255);stroke:rgb(0,0,0);stroke-width:1"/>
<text x="580.5" y="698.5" style="font-family:Arial;font-size:8pt;fill:rgb(0,0,0);font-weight:bold;text-anchor:middle;dominant-baseline:central">TopReference</text>
<line x1="535" y1="708" x2="538" y2="705" style="stroke:rgb(0,0,0);stroke-width:2"/>
<path d="M538 705 L540 707 L541 702 L536 703 L538 705 Z" style="fill:rgb(0,0,0)"/>
<rect x="622" y="693" width="10" height="10" style="fill:rgb(255,255,255);stroke:rgb(0,0,0);stroke-width:1"/>
<line x1="624" y1="698" x2="630" y2="698" style="stroke:rgb(0,0,0);stroke-width:1"/>

<path d="M697 790 L766 790 L772 796 L772 805 L766 811 L697 811 L691 805 L691 796 Z" style="fill:rgb(255,255,255);stroke:rgb(0,0,0);stroke-width:1"/>
<text x="731.5" y="800.5" style="font-family:Arial;font-size:8pt;fill:rgb(0,0,0);font-weight:bold;text-anchor:middle;dominant-baseline:central">Expression</text>
<line x1="692" y1="810" x2="695" y2="807" style="stroke:rgb(0,0,0);stroke-width:2"/>
<path d="M695 807 L697 809 L698 804 L693 805 L695 807 Z" style="fill:rgb(0,0,0)"/>
<rect x="767" y="795" width="10" height="10" style="fill:rgb(255,255,255);stroke:rgb(0,0,0);stroke-width:1"/>
<line x1="769" y1="800" x2="775" y2="800" style="stroke:rgb(0,0,0);stroke-width:1"/>
<line x1="772" y1="797" x2="772" y2="803" style="stroke:rgb(0,0,0);stroke-width:1"/>

<rect x="751" y="841" width="60" height="21" style="fill:rgb(255,255,255);stroke:rgb(0,0,0);stroke-width:1"/>
<text x="781" y="851.5" style="font-family:Arial;font-size:8pt;fill:rgb(0,0,0);font-weight:bold;text-anchor:middle;dominant-baseline:central">member</text>

<path d="M859 892 L928 892 L934 898 L934 907 L928 913 L859 913 L853 907 L853 898 Z" style="fill:rgb(255,255,255);stroke:rgb(0,0,0);stroke-width:1"/>
<text x="893.5" y="902.5" style="font-family:Arial;font-size:8pt;fill:rgb(0,0,0);font-weight:bold;text-anchor:middle;dominant-baseline:central">Expression</text>
<line x1="854" y1="912" x2="857" y2="909" style="stroke:rgb(0,0,0);stroke-width:2"/>
<path d="M857 909 L859 911 L860 906 L855 907 L857 909 Z" style="fill:rgb(0,0,0)"/>
<rect x="929" y="897" width="10" height="10" style="fill:rgb(255,255,255);stroke:rgb(0,0,0);stroke-width:1"/>
<line x1="931" y1="902" x2="937" y2="902" style="stroke:rgb(0,0,0);stroke-width:1"/>
<line x1="934" y1="899" x2="934" y2="905" style="stroke:rgb(0,0,0);stroke-width:1"/>

<line x1="833" y1="902" x2="853" y2="902" style="stroke:rgb(0,0,0);stroke-width:1;stroke-linecap:round"/>
<rect x="751" y="892" width="77" height="21" style="fill:rgb(255,255,255);stroke:rgb(0,0,0);stroke-width:1"/>
<text x="789.5" y="902.5" style="font-family:Arial;font-size:8pt;fill:rgb(0,0,0);font-weight:bold;text-anchor:middle;dominant-baseline:central">subscripts</text>
<rect x="823" y="897" width="10" height="10" style="fill:rgb(255,255,255);stroke:rgb(0,0,0);stroke-width:1"/>
<line x1="825" y1="902" x2="831" y2="902" style="stroke:rgb(0,0,0);stroke-width:1"/>

<line x1="741" y1="851" x2="751" y2="851" style="stroke:rgb(0,0,0);stroke-width:1;stroke-linecap:round"/>
<line x1="741" y1="902" x2="751" y2="902" style="stroke:rgb(0,0,0);stroke-width:1;stroke-linecap:round"/>
<line x1="741" y1="851" x2="741" y2="902" style="stroke:rgb(0,0,0);stroke-width:1;stroke-linecap:round"/>
<line x1="731" y1="877" x2="741" y2="877" style="stroke:rgb(0,0,0);stroke-width:1;stroke-linecap:round"/>
<path d="M700 870 L723 870 L729 876 L729 884 L723 890 L700 890 L694 884 L694 876 Z" style="fill:rgb(255,255,255);stroke:rgb(0,0,0);stroke-width:1"/>
<path d="M697 867 L720 867 L726 873 L726 881 L720 887 L697 887 L691 881 L691 873 Z" style="fill:rgb(255,255,255);stroke:rgb(0,0,0);stroke-width:1"/>
<line x1="696" y1="877" x2="700" y2="877" style="stroke:rgb(0,0,0);stroke-width:1"/>
<line x1="700" y1="877" x2="704" y2="873" style="stroke:rgb(0,0,0);stroke-width:1"/>
<line x1="712" y1="873" x2="716" y2="873" style="stroke:rgb(0,0,0);stroke-width:1"/>
<line x1="712" y1="877" x2="720" y2="877" style="stroke:rgb(0,0,0);stroke-width:1"/>
<line x1="712" y1="881" x2="716" y2="881" style="stroke:rgb(0,0,0);stroke-width:1"/>
<line x1="716" y1="873" x2="716" y2="881" style="stroke:rgb(0,0,0);stroke-width:1"/>
<ellipse cx="708" cy="873" rx="2" ry="2" style="rgb(0,0,0)"/>
<ellipse cx="708" cy="877" rx="2" ry="2" style="rgb(0,0,0)"/>
<ellipse cx="708" cy="881" rx="2" ry="2" style="rgb(0,0,0)"/>
<text x="721" y="897" style="font-family:Arial;font-size:7.2pt;fill:rgb(0,0,0);text-anchor:end;dominant-baseline:central">1..∞</text>
<rect x="721" y="872" width="10" height="10" style="fill:rgb(255,255,255);stroke:rgb(0,0,0);stroke-width:1"/>
<line x1="723" y1="877" x2="729" y2="877" style="stroke:rgb(0,0,0);stroke-width:1"/>

<line x1="681" y1="800" x2="691" y2="800" style="stroke:rgb(0,0,0);stroke-width:1;stroke-linecap:round"/>
<line x1="681" y1="877" x2="691" y2="877" style="stroke:rgb(0,0,0);stroke-width:1;stroke-linecap:round"/>
<line x1="681" y1="800" x2="681" y2="877" style="stroke:rgb(0,0,0);stroke-width:1;stroke-linecap:round"/>
<line x1="671" y1="851" x2="681" y2="851" style="stroke:rgb(0,0,0);stroke-width:1;stroke-linecap:round"/>
<path d="M637 841 L660 841 L666 847 L666 855 L660 861 L637 861 L631 855 L631 847 Z" style="fill:rgb(255,255,255);stroke:rgb(0,0,0);stroke-width:1"/>
<line x1="634" y1="851" x2="663" y2="851" style="stroke:rgb(0,0,0);stroke-width:1"/>
<ellipse cx="643" cy="851" rx="2" ry="2" style="rgb(0,0,0)"/>
<ellipse cx="648" cy="851" rx="2" ry="2" style="rgb(0,0,0)"/>
<ellipse cx="653" cy="851" rx="2" ry="2" style="rgb(0,0,0)"/>
<rect x="661" y="846" width="10" height="10" style="fill:rgb(255,255,255);stroke:rgb(0,0,0);stroke-width:1"/>
<line x1="663" y1="851" x2="669" y2="851" style="stroke:rgb(0,0,0);stroke-width:1"/>

<line x1="611" y1="851" x2="631" y2="851" style="stroke:rgb(0,0,0);stroke-width:1;stroke-linecap:round"/>
<rect x="534" y="841" width="72" height="21" style="fill:rgb(255,255,255);stroke:rgb(0,0,0);stroke-width:1"/>
<text x="570" y="851.5" style="font-family:Arial;font-size:8pt;fill:rgb(0,0,0);font-weight:bold;text-anchor:middle;dominant-baseline:central">reference</text>
<rect x="601" y="846" width="10" height="10" style="fill:rgb(255,255,255);stroke:rgb(0,0,0);stroke-width:1"/>
<line x1="603" y1="851" x2="609" y2="851" style="stroke:rgb(0,0,0);stroke-width:1"/>

<line x1="524" y1="698" x2="534" y2="698" style="stroke:rgb(0,0,0);stroke-width:1;stroke-linecap:round"/>
<line x1="524" y1="851" x2="534" y2="851" style="stroke:rgb(0,0,0);stroke-width:1;stroke-linecap:round"/>
<line x1="524" y1="698" x2="524" y2="851" style="stroke:rgb(0,0,0);stroke-width:1;stroke-linecap:round"/>
<line x1="514" y1="775" x2="524" y2="775" style="stroke:rgb(0,0,0);stroke-width:1;stroke-linecap:round"/>
<path d="M480 765 L503 765 L509 771 L509 779 L503 785 L480 785 L474 779 L474 771 Z" style="fill:rgb(255,255,255);stroke:rgb(0,0,0);stroke-width:1"/>
<line x1="479" y1="775" x2="483" y2="775" style="stroke:rgb(0,0,0);stroke-width:1"/>
<line x1="483" y1="775" x2="487" y2="771" style="stroke:rgb(0,0,0);stroke-width:1"/>
<line x1="495" y1="771" x2="499" y2="771" style="stroke:rgb(0,0,0);stroke-width:1"/>
<line x1="495" y1="775" x2="503" y2="775" style="stroke:rgb(0,0,0);stroke-width:1"/>
<line x1="495" y1="779" x2="499" y2="779" style="stroke:rgb(0,0,0);stroke-width:1"/>
<line x1="499" y1="771" x2="499" y2="779" style="stroke:rgb(0,0,0);stroke-width:1"/>
<ellipse cx="491" cy="771" rx="2" ry="2" style="rgb(0,0,0)"/>
<ellipse cx="491" cy="775" rx="2" ry="2" style="rgb(0,0,0)"/>
<ellipse cx="491" cy="779" rx="2" ry="2" style="rgb(0,0,0)"/>
<rect x="504" y="770" width="10" height="10" style="fill:rgb(255,255,255);stroke:rgb(0,0,0);stroke-width:1"/>
<line x1="506" y1="775" x2="512" y2="775" style="stroke:rgb(0,0,0);stroke-width:1"/>

<line x1="454" y1="774" x2="474" y2="774" style="stroke:rgb(0,0,0);stroke-width:1;stroke-linecap:round"/>
<path d="M336 764 L443 764 L449 770 L449 779 L443 785 L336 785 L330 779 L330 770 Z" style="fill:rgb(255,255,255);stroke:rgb(0,0,0);stroke-width:1"/>
<text x="389.5" y="774.5" style="font-family:Arial;font-size:8pt;fill:rgb(0,0,0);font-weight:bold;text-anchor:middle;dominant-baseline:central">QualifiedReference</text>
<line x1="331" y1="784" x2="334" y2="781" style="stroke:rgb(0,0,0);stroke-width:2"/>
<path d="M334 781 L336 783 L337 778 L332 779 L334 781 Z" style="fill:rgb(0,0,0)"/>
<rect x="444" y="769" width="10" height="10" style="fill:rgb(255,255,255);stroke:rgb(0,0,0);stroke-width:1"/>
<line x1="446" y1="774" x2="452" y2="774" style="stroke:rgb(0,0,0);stroke-width:1"/>

<path d="M608 943 L677 943 L683 949 L683 958 L677 964 L608 964 L602 958 L602 949 Z" style="fill:rgb(255,255,255);stroke:rgb(0,0,0);stroke-width:1"/>
<text x="642.5" y="953.5" style="font-family:Arial;font-size:8pt;fill:rgb(0,0,0);font-weight:bold;text-anchor:middle;dominant-baseline:central">Expression</text>
<line x1="603" y1="963" x2="606" y2="960" style="stroke:rgb(0,0,0);stroke-width:2"/>
<path d="M606 960 L608 962 L609 957 L604 958 L606 960 Z" style="fill:rgb(0,0,0)"/>
<rect x="678" y="948" width="10" height="10" style="fill:rgb(255,255,255);stroke:rgb(0,0,0);stroke-width:1"/>
<line x1="680" y1="953" x2="686" y2="953" style="stroke:rgb(0,0,0);stroke-width:1"/>
<line x1="683" y1="950" x2="683" y2="956" style="stroke:rgb(0,0,0);stroke-width:1"/>

<rect x="602" y="994" width="56" height="21" style="fill:rgb(255,255,255);stroke:rgb(0,0,0);stroke-width:1"/>
<text x="630" y="1004.5" style="font-family:Arial;font-size:8pt;fill:rgb(0,0,0);font-weight:bold;text-anchor:middle;dominant-baseline:central">nothing</text>

<line x1="592" y1="953" x2="602" y2="953" style="stroke:rgb(0,0,0);stroke-width:1;stroke-linecap:round"/>
<line x1="592" y1="1004" x2="602" y2="1004" style="stroke:rgb(0,0,0);stroke-width:1;stroke-linecap:round"/>
<line x1="592" y1="953" x2="592" y2="1004" style="stroke:rgb(0,0,0);stroke-width:1;stroke-linecap:round"/>
<line x1="582" y1="979" x2="592" y2="979" style="stroke:rgb(0,0,0);stroke-width:1;stroke-linecap:round"/>
<path d="M548 969 L571 969 L577 975 L577 983 L571 989 L548 989 L542 983 L542 975 Z" style="fill:rgb(255,255,255);stroke:rgb(0,0,0);stroke-width:1"/>
<line x1="547" y1="979" x2="551" y2="979" style="stroke:rgb(0,0,0);stroke-width:1"/>
<line x1="551" y1="979" x2="555" y2="975" style="stroke:rgb(0,0,0);stroke-width:1"/>
<line x1="563" y1="975" x2="567" y2="975" style="stroke:rgb(0,0,0);stroke-width:1"/>
<line x1="563" y1="979" x2="571" y2="979" style="stroke:rgb(0,0,0);stroke-width:1"/>
<line x1="563" y1="983" x2="567" y2="983" style="stroke:rgb(0,0,0);stroke-width:1"/>
<line x1="567" y1="975" x2="567" y2="983" style="stroke:rgb(0,0,0);stroke-width:1"/>
<ellipse cx="559" cy="975" rx="2" ry="2" style="rgb(0,0,0)"/>
<ellipse cx="559" cy="979" rx="2" ry="2" style="rgb(0,0,0)"/>
<ellipse cx="559" cy="983" rx="2" ry="2" style="rgb(0,0,0)"/>
<rect x="572" y="974" width="10" height="10" style="fill:rgb(255,255,255);stroke:rgb(0,0,0);stroke-width:1"/>
<line x1="574" y1="979" x2="580" y2="979" style="stroke:rgb(0,0,0);stroke-width:1"/>

<line x1="522" y1="978" x2="542" y2="978" style="stroke:rgb(0,0,0);stroke-width:1;stroke-linecap:round"/>
<path d="M410 968 L511 968 L517 974 L517 983 L511 989 L410 989 L404 983 L404 974 Z" style="fill:rgb(255,255,255);stroke:rgb(0,0,0);stroke-width:1"/>
<text x="460.5" y="978.5" style="font-family:Arial;font-size:8pt;fill:rgb(0,0,0);font-weight:bold;text-anchor:middle;dominant-baseline:central">MaybeExpression</text>
<line x1="405" y1="988" x2="408" y2="985" style="stroke:rgb(0,0,0);stroke-width:2"/>
<path d="M408 985 L410 987 L411 982 L406 983 L408 985 Z" style="fill:rgb(0,0,0)"/>
<rect x="512" y="973" width="10" height="10" style="fill:rgb(255,255,255);stroke:rgb(0,0,0);stroke-width:1"/>
<line x1="514" y1="978" x2="520" y2="978" style="stroke:rgb(0,0,0);stroke-width:1"/>

<line x1="384" y1="978" x2="404" y2="978" style="stroke:rgb(0,0,0);stroke-width:1;stroke-linecap:round"/>
<rect x="330" y="968" width="49" height="21" style="fill:rgb(255,255,255);stroke:rgb(0,0,0);stroke-width:1"/>
<text x="354.5" y="978.5" style="font-family:Arial;font-size:8pt;fill:rgb(0,0,0);font-weight:bold;text-anchor:middle;dominant-baseline:central">tuple</text>
<rect x="374" y="973" width="10" height="10" style="fill:rgb(255,255,255);stroke:rgb(0,0,0);stroke-width:1"/>
<line x1="376" y1="978" x2="382" y2="978" style="stroke:rgb(0,0,0);stroke-width:1"/>

<line x1="320" y1="774" x2="330" y2="774" style="stroke:rgb(0,0,0);stroke-width:1;stroke-linecap:round"/>
<line x1="320" y1="978" x2="330" y2="978" style="stroke:rgb(0,0,0);stroke-width:1;stroke-linecap:round"/>
<line x1="320" y1="774" x2="320" y2="978" style="stroke:rgb(0,0,0);stroke-width:1;stroke-linecap:round"/>
<line x1="310" y1="826" x2="320" y2="826" style="stroke:rgb(0,0,0);stroke-width:1;stroke-linecap:round"/>
<path d="M276 816 L299 816 L305 822 L305 830 L299 836 L276 836 L270 830 L270 822 Z" style="fill:rgb(255,255,255);stroke:rgb(0,0,0);stroke-width:1"/>
<line x1="275" y1="826" x2="279" y2="826" style="stroke:rgb(0,0,0);stroke-width:1"/>
<line x1="279" y1="826" x2="283" y2="822" style="stroke:rgb(0,0,0);stroke-width:1"/>
<line x1="291" y1="822" x2="295" y2="822" style="stroke:rgb(0,0,0);stroke-width:1"/>
<line x1="291" y1="826" x2="299" y2="826" style="stroke:rgb(0,0,0);stroke-width:1"/>
<line x1="291" y1="830" x2="295" y2="830" style="stroke:rgb(0,0,0);stroke-width:1"/>
<line x1="295" y1="822" x2="295" y2="830" style="stroke:rgb(0,0,0);stroke-width:1"/>
<ellipse cx="287" cy="822" rx="2" ry="2" style="rgb(0,0,0)"/>
<ellipse cx="287" cy="826" rx="2" ry="2" style="rgb(0,0,0)"/>
<ellipse cx="287" cy="830" rx="2" ry="2" style="rgb(0,0,0)"/>
<rect x="300" y="821" width="10" height="10" style="fill:rgb(255,255,255);stroke:rgb(0,0,0);stroke-width:1"/>
<line x1="302" y1="826" x2="308" y2="826" style="stroke:rgb(0,0,0);stroke-width:1"/>

<line x1="250" y1="825" x2="270" y2="825" style="stroke:rgb(0,0,0);stroke-width:1;stroke-linecap:round"/>
<path d="M192 815 L239 815 L245 821 L245 830 L239 836 L192 836 L186 830 L186 821 Z" style="fill:rgb(255,255,255);stroke:rgb(0,0,0);stroke-width:1"/>
<text x="215.5" y="825.5" style="font-family:Arial;font-size:8pt;fill:rgb(0,0,0);font-weight:bold;text-anchor:middle;dominant-baseline:central">LValue</text>
<line x1="187" y1="835" x2="190" y2="832" style="stroke:rgb(0,0,0);stroke-width:2"/>
<path d="M190 832 L192 834 L193 829 L188 830 L190 832 Z" style="fill:rgb(0,0,0)"/>
<rect x="240" y="820" width="10" height="10" style="fill:rgb(255,255,255);stroke:rgb(0,0,0);stroke-width:1"/>
<line x1="242" y1="825" x2="248" y2="825" style="stroke:rgb(0,0,0);stroke-width:1"/>

<line x1="176" y1="137" x2="186" y2="137" style="stroke:rgb(0,0,0);stroke-width:1;stroke-linecap:round"/>
<line x1="176" y1="341" x2="186" y2="341" style="stroke:rgb(0,0,0);stroke-width:1;stroke-linecap:round"/>
<line x1="176" y1="494" x2="186" y2="494" style="stroke:rgb(0,0,0);stroke-width:1;stroke-linecap:round"/>
<line x1="176" y1="596" x2="186" y2="596" style="stroke:rgb(0,0,0);stroke-width:1;stroke-linecap:round"/>
<line x1="176" y1="825" x2="186" y2="825" style="stroke:rgb(0,0,0);stroke-width:1;stroke-linecap:round"/>
<line x1="176" y1="137" x2="176" y2="825" style="stroke:rgb(0,0,0);stroke-width:1;stroke-linecap:round"/>
<line x1="166" y1="520" x2="176" y2="520" style="stroke:rgb(0,0,0);stroke-width:1;stroke-linecap:round"/>
<path d="M132 510 L155 510 L161 516 L161 524 L155 530 L132 530 L126 524 L126 516 Z" style="fill:rgb(255,255,255);stroke:rgb(0,0,0);stroke-width:1"/>
<line x1="131" y1="520" x2="135" y2="520" style="stroke:rgb(0,0,0);stroke-width:1"/>
<line x1="135" y1="520" x2="139" y2="516" style="stroke:rgb(0,0,0);stroke-width:1"/>
<line x1="147" y1="516" x2="151" y2="516" style="stroke:rgb(0,0,0);stroke-width:1"/>
<line x1="147" y1="520" x2="155" y2="520" style="stroke:rgb(0,0,0);stroke-width:1"/>
<line x1="147" y1="524" x2="151" y2="524" style="stroke:rgb(0,0,0);stroke-width:1"/>
<line x1="151" y1="516" x2="151" y2="524" style="stroke:rgb(0,0,0);stroke-width:1"/>
<ellipse cx="143" cy="516" rx="2" ry="2" style="rgb(0,0,0)"/>
<ellipse cx="143" cy="520" rx="2" ry="2" style="rgb(0,0,0)"/>
<ellipse cx="143" cy="524" rx="2" ry="2" style="rgb(0,0,0)"/>
<rect x="156" y="515" width="10" height="10" style="fill:rgb(255,255,255);stroke:rgb(0,0,0);stroke-width:1"/>
<line x1="158" y1="520" x2="164" y2="520" style="stroke:rgb(0,0,0);stroke-width:1"/>

<line x1="106" y1="519" x2="126" y2="519" style="stroke:rgb(0,0,0);stroke-width:1;stroke-linecap:round"/>
<path d="M26 509 L95 509 L101 515 L101 524 L95 530 L26 530 L20 524 L20 515 Z" style="fill:rgb(255,255,255);stroke:rgb(0,0,0);stroke-width:1"/>
<text x="60.5" y="519.5" style="font-family:Arial;font-size:8pt;fill:rgb(0,0,0);font-weight:bold;text-anchor:middle;dominant-baseline:central">Expression</text>
<rect x="96" y="514" width="10" height="10" style="fill:rgb(255,255,255);stroke:rgb(0,0,0);stroke-width:1"/>
<line x1="98" y1="519" x2="104" y2="519" style="stroke:rgb(0,0,0);stroke-width:1"/>
</svg>
